dataset
version=1
nRows=25
nColumns=39
inDegrees=no
endheader
time	sternoclavicular_r2	sternoclavicular_r3	unrotscap_r3	unrotscap_r2	acromioclavicular_r2	acromioclavicular_r3	acromioclavicular_r1	unrothum_r1	unrothum_r3	unrothum_r2	elv_angle	shoulder_elv	shoulder1_r2	shoulder_rot	elbow_flexion	pro_sup	deviation	flexion	cmc_abduction	cmc_flexion	mp_flexion	ip_flexion	mcp2_flexion	mcp2_abduction	pm2_flexion	md2_flexion	mcp3_flexion	mcp3_abduction	pm3_flexion	md3_flexion	mcp4_flexion	mcp4_abduction	pm4_flexion	md4_flexion	mcp5_flexion	mcp5_abduction	pm5_flexion	md5_flexion
2.385000	-0.023952	-0.332141	0.140504	0.134772	0.091586	0.218755	-0.066424	0.021514	0.166038	0.099563	0.136750	0.027437	0.146525	0.146525	2.198601	1.244809	0.000000	0.000000	0.000000	0.000000	0.000000	0.000000	0.000000	0.000000	0.000000	0.000000	0.000000	0.000000	0.000000	0.000000	0.000000	0.000000	0.000000	0.000000	0.000000	0.000000	0.000000	0.000000
2.390000	-0.024033	-0.332041	0.140508	0.135162	0.092093	0.218215	-0.066698	0.020963	0.165908	0.100307	0.137327	0.027437	0.146525	0.146525	2.192935	1.245285	0.000000	0.000000	0.000000	0.000000	0.000000	0.000000	0.000000	0.000000	0.000000	0.000000	0.000000	0.000000	0.000000	0.000000	0.000000	0.000000	0.000000	0.000000	0.000000	0.000000	0.000000	0.000000
2.395000	-0.024116	-0.331941	0.140512	0.135567	0.092616	0.217669	-0.066973	0.020407	0.165781	0.101070	0.137921	0.027437	0.146525	0.146525	2.187165	1.245762	0.000000	0.000000	0.000000	0.000000	0.000000	0.000000	0.000000	0.000000	0.000000	0.000000	0.000000	0.000000	0.000000	0.000000	0.000000	0.000000	0.000000	0.000000	0.000000	0.000000	0.000000	0.000000
2.400000	-0.024201	-0.331841	0.140515	0.135986	0.093156	0.217115	-0.067248	0.019847	0.165657	0.101852	0.138534	0.027437	0.146525	0.146525	2.181294	1.246239	0.000000	0.000000	0.000000	0.000000	0.000000	0.000000	0.000000	0.000000	0.000000	0.000000	0.000000	0.000000	0.000000	0.000000	0.000000	0.000000	0.000000	0.000000	0.000000	0.000000	0.000000	0.000000
2.405000	-0.024287	-0.331741	0.140517	0.136421	0.093712	0.216555	-0.067524	0.019282	0.165535	0.102652	0.139164	0.027437	0.146525	0.146525	2.175324	1.246717	0.000000	0.000000	0.000000	0.000000	0.000000	0.000000	0.000000	0.000000	0.000000	0.000000	0.000000	0.000000	0.000000	0.000000	0.000000	0.000000	0.000000	0.000000	0.000000	0.000000	0.000000	0.000000
2.410000	-0.024375	-0.331641	0.140518	0.136870	0.094284	0.215989	-0.067801	0.018714	0.165416	0.103471	0.139813	0.027437	0.146525	0.146525	2.169260	1.247196	0.000000	0.000000	0.000000	0.000000	0.000000	0.000000	0.000000	0.000000	0.000000	0.000000	0.000000	0.000000	0.000000	0.000000	0.000000	0.000000	0.000000	0.000000	0.000000	0.000000	0.000000	0.000000
2.415000	-0.024464	-0.331543	0.140518	0.137334	0.094873	0.215416	-0.068079	0.018142	0.165299	0.104308	0.140478	0.027437	0.146525	0.146525	2.163104	1.247675	0.000000	0.000000	0.000000	0.000000	0.000000	0.000000	0.000000	0.000000	0.000000	0.000000	0.000000	0.000000	0.000000	0.000000	0.000000	0.000000	0.000000	0.000000	0.000000	0.000000	0.000000	0.000000
2.420000	-0.024554	-0.331446	0.140519	0.137813	0.095478	0.214837	-0.068358	0.017566	0.165184	0.105163	0.141162	0.027437	0.146525	0.146525	2.156859	1.248154	0.000000	0.000000	0.000000	0.000000	0.000000	0.000000	0.000000	0.000000	0.000000	0.000000	0.000000	0.000000	0.000000	0.000000	0.000000	0.000000	0.000000	0.000000	0.000000	0.000000	0.000000	0.000000
2.425000	-0.024646	-0.331350	0.140519	0.138306	0.096099	0.214253	-0.068639	0.016988	0.165071	0.106036	0.141862	0.027437	0.146525	0.146525	2.150530	1.248633	0.000000	0.000000	0.000000	0.000000	0.000000	0.000000	0.000000	0.000000	0.000000	0.000000	0.000000	0.000000	0.000000	0.000000	0.000000	0.000000	0.000000	0.000000	0.000000	0.000000	0.000000	0.000000
2.430000	-0.024740	-0.331256	0.140520	0.138814	0.096736	0.213663	-0.068921	0.016408	0.164960	0.106926	0.142579	0.027437	0.146525	0.146525	2.144119	1.249112	0.000000	0.000000	0.000000	0.000000	0.000000	0.000000	0.000000	0.000000	0.000000	0.000000	0.000000	0.000000	0.000000	0.000000	0.000000	0.000000	0.000000	0.000000	0.000000	0.000000	0.000000	0.000000
2.435000	-0.024834	-0.331165	0.140521	0.139337	0.097389	0.213067	-0.069205	0.015826	0.164850	0.107834	0.143314	0.027437	0.146525	0.146525	2.137630	1.249591	0.000000	0.000000	0.000000	0.000000	0.000000	0.000000	0.000000	0.000000	0.000000	0.000000	0.000000	0.000000	0.000000	0.000000	0.000000	0.000000	0.000000	0.000000	0.000000	0.000000	0.000000	0.000000
2.440000	-0.024929	-0.331076	0.140524	0.139874	0.098058	0.212467	-0.069491	0.015241	0.164741	0.108759	0.144064	0.027437	0.146525	0.146525	2.131068	1.250069	0.000000	0.000000	0.000000	0.000000	0.000000	0.000000	0.000000	0.000000	0.000000	0.000000	0.000000	0.000000	0.000000	0.000000	0.000000	0.000000	0.000000	0.000000	0.000000	0.000000	0.000000	0.000000
2.445000	-0.025026	-0.330991	0.140527	0.140426	0.098742	0.211862	-0.069779	0.014656	0.164634	0.109701	0.144831	0.027437	0.146525	0.146525	2.124436	1.250546	0.000000	0.000000	0.000000	0.000000	0.000000	0.000000	0.000000	0.000000	0.000000	0.000000	0.000000	0.000000	0.000000	0.000000	0.000000	0.000000	0.000000	0.000000	0.000000	0.000000	0.000000	0.000000
2.450000	-0.025123	-0.330909	0.140532	0.140992	0.099442	0.211252	-0.070069	0.014070	0.164527	0.110659	0.145614	0.027437	0.146525	0.146525	2.117738	1.251022	0.000000	0.000000	0.000000	0.000000	0.000000	0.000000	0.000000	0.000000	0.000000	0.000000	0.000000	0.000000	0.000000	0.000000	0.000000	0.000000	0.000000	0.000000	0.000000	0.000000	0.000000	0.000000
2.455000	-0.025222	-0.330830	0.140539	0.141572	0.100157	0.210638	-0.070362	0.013483	0.164422	0.111634	0.146412	0.027437	0.146525	0.146525	2.110978	1.251497	0.000000	0.000000	0.000000	0.000000	0.000000	0.000000	0.000000	0.000000	0.000000	0.000000	0.000000	0.000000	0.000000	0.000000	0.000000	0.000000	0.000000	0.000000	0.000000	0.000000	0.000000	0.000000
2.460000	-0.025320	-0.330757	0.140549	0.142166	0.100887	0.210019	-0.070658	0.012896	0.164316	0.112624	0.147226	0.027437	0.146525	0.146525	2.104160	1.251971	0.000000	0.000000	0.000000	0.000000	0.000000	0.000000	0.000000	0.000000	0.000000	0.000000	0.000000	0.000000	0.000000	0.000000	0.000000	0.000000	0.000000	0.000000	0.000000	0.000000	0.000000	0.000000
2.465000	-0.025420	-0.330687	0.140560	0.142774	0.101632	0.209397	-0.070957	0.012310	0.164210	0.113630	0.148054	0.027437	0.146525	0.146525	2.097289	1.252443	0.000000	0.000000	0.000000	0.000000	0.000000	0.000000	0.000000	0.000000	0.000000	0.000000	0.000000	0.000000	0.000000	0.000000	0.000000	0.000000	0.000000	0.000000	0.000000	0.000000	0.000000	0.000000
2.470000	-0.025520	-0.330623	0.140575	0.143396	0.102391	0.208772	-0.071259	0.011724	0.164105	0.114651	0.148897	0.027437	0.146525	0.146525	2.090368	1.252913	0.000000	0.000000	0.000000	0.000000	0.000000	0.000000	0.000000	0.000000	0.000000	0.000000	0.000000	0.000000	0.000000	0.000000	0.000000	0.000000	0.000000	0.000000	0.000000	0.000000	0.000000	0.000000
2.475000	-0.025620	-0.330565	0.140593	0.144030	0.103164	0.208143	-0.071564	0.011139	0.163999	0.115686	0.149754	0.027437	0.146525	0.146525	2.083401	1.253382	0.000000	0.000000	0.000000	0.000000	0.000000	0.000000	0.000000	0.000000	0.000000	0.000000	0.000000	0.000000	0.000000	0.000000	0.000000	0.000000	0.000000	0.000000	0.000000	0.000000	0.000000	0.000000
2.480000	-0.025721	-0.330512	0.140615	0.144678	0.103952	0.207511	-0.071874	0.010556	0.163892	0.116735	0.150625	0.027437	0.146525	0.146525	2.076393	1.253848	0.000000	0.000000	0.000000	0.000000	0.000000	0.000000	0.000000	0.000000	0.000000	0.000000	0.000000	0.000000	0.000000	0.000000	0.000000	0.000000	0.000000	0.000000	0.000000	0.000000	0.000000	0.000000
2.485000	-0.025822	-0.330466	0.140641	0.145339	0.104753	0.206877	-0.072187	0.009975	0.163785	0.117798	0.151509	0.027437	0.146525	0.146525	2.069349	1.254313	0.000000	0.000000	0.000000	0.000000	0.000000	0.000000	0.000000	0.000000	0.000000	0.000000	0.000000	0.000000	0.000000	0.000000	0.000000	0.000000	0.000000	0.000000	0.000000	0.000000	0.000000	0.000000
2.490000	-0.025924	-0.330427	0.140672	0.146013	0.105567	0.206240	-0.072505	0.009396	0.163676	0.118875	0.152406	0.027437	0.146525	0.146525	2.062271	1.254774	0.000000	0.000000	0.000000	0.000000	0.000000	0.000000	0.000000	0.000000	0.000000	0.000000	0.000000	0.000000	0.000000	0.000000	0.000000	0.000000	0.000000	0.000000	0.000000	0.000000	0.000000	0.000000
2.495000	-0.026025	-0.330395	0.140707	0.146698	0.106394	0.205602	-0.072827	0.008819	0.163566	0.119964	0.153315	0.027437	0.146525	0.146525	2.055165	1.255234	0.000000	0.000000	0.000000	0.000000	0.000000	0.000000	0.000000	0.000000	0.000000	0.000000	0.000000	0.000000	0.000000	0.000000	0.000000	0.000000	0.000000	0.000000	0.000000	0.000000	0.000000	0.000000
2.500000	-0.026127	-0.330370	0.140748	0.147396	0.107234	0.204961	-0.073155	0.008246	0.163455	0.121066	0.154236	0.027437	0.146525	0.146525	2.048035	1.255690	0.000000	0.000000	0.000000	0.000000	0.000000	0.000000	0.000000	0.000000	0.000000	0.000000	0.000000	0.000000	0.000000	0.000000	0.000000	0.000000	0.000000	0.000000	0.000000	0.000000	0.000000	0.000000
2.505000	-0.026228	-0.330353	0.140794	0.148106	0.108085	0.204319	-0.073487	0.007676	0.163341	0.122179	0.155168	0.027437	0.146525	0.146525	2.040885	1.256144	0.000000	0.000000	0.000000	0.000000	0.000000	0.000000	0.000000	0.000000	0.000000	0.000000	0.000000	0.000000	0.000000	0.000000	0.000000	0.000000	0.000000	0.000000	0.000000	0.000000	0.000000	0.000000
